<svg class="smallRed" xmlns="http://www.w3.org/2000/svg" viewBox="0 0 359.24 42.23"><defs><style>.cls-1{fill:#f9a458;}.cls-2{fill:#f6963a;}.cls-3{fill:#e7e8e8;}.cls-4{fill:#6e6663;}.cls-5{fill:#d7d7d4;}.cls-6{fill:#f4f5f5;}.cls-7{fill:#c0b8b0;}.cls-8{fill:#b52a28;}.cls-9{fill:#da8639;}.cls-10{fill:#9a938a;}.cls-11{fill:#514d4c;}.cls-12{fill:#cbcdcd;}.cls-13{fill:#d36928;}.cls-14{fill:#e27826;}.cls-15{fill:#ef8523;}.cls-16{fill:#fbfdfe;}.cls-17{opacity:0.48;}</style></defs><title>smallRed</title><g id="red"><path class="cls-1" d="M91.53,1a1.88,1.88,0,0,1,2.15,0c6.25,2.39,13,2.64,19.3,2.06,7.8-.71,15.53-.34,23.28-.62l.18,6c0,.64,0,1.28,0,1.92l-.4,1.06c-3.75-1.19-7.4-1.78-10.93.78a6,6,0,0,1-3.31,1c-7,0-14.07.07-20.91-.42-10.51-.76-20.94-.12-31.39-.33-9.58-.19-19.18.58-28.72.38-11.42-.23-22.83-.14-34.24-.42-2.15-.05-4.62-.48-4.44,3-2.25,2.66.54,6.42-2,9v-21L2,2.28C6.48,1.66,11.25,3.86,15.53,1a1.88,1.88,0,0,1,2.2,0C20.9,2.83,24,3.62,27.07.7H29.2c.29,1.48,1.36,1.65,2.6,1.64q13.83,0,27.65,0c1.24,0,2.32-.14,2.62-1.61A153.61,153.61,0,0,1,83.2.7C85.89,3.72,88.7,2.7,91.53,1Z"/><path class="cls-2" d="M.14,24.33c2.52-2.6-.27-6.36,2-9l.12.12c0,2,0,4,0,5.95v6a39.3,39.3,0,0,1-.13,5c-.58,4,1.22,5.47,5,4.94-1,2.06-4.75-.27-5,3.05l-2-2Z"/><path class="cls-3" d="M177.16.34l99,.09c0,1-.16,2.12.93,2.62s3.41.2,2.68,2.56c-.53,1.73-2.23,1.7-3.76,1.74a6.29,6.29,0,0,0-2.43.36c-1.13.54-2.88.25-3.24,1.89s1.2,1.8,2,2.52c1.24,1.09,2.41,1.55,3.88.11a11.7,11.7,0,0,1,3.41-1.91c2.68-1.23,4.1-.11,4.88,2.43-2,1.23-4.41-.35-5.82,1.86.77,1.61,4.29,2.22,2.65,4.52-1.84,2.58-3.34-.7-5-1.24-2.86-.94-5.77-.63-7,1.81-2.05,4.2-3.45,1.55-5.22.15-.39-.32-.32-2.33-.88-1-2.38,5.6-7.3.1-11,2.86-2.35,1.75-7.77-3.34-12.45-1.51-.34.14-1.27-.5-1.5-1-.92-1.95-1.14-1.1-2.57-.13-2.93,2-7.46,3.23-9.93,1.33-2.32-1.78-2.54-1.27-3.74.32a3.56,3.56,0,0,1-3,1.55l-2-1.94c-3.11,1.7-6.78-3.21-9.82.87-.39.52-1.84-.29-2.2-1.43-.23-.73-.83-1.24-1.47-.81-3.8,2.6-7.77,2-11.82.82-.37-.1-1.22.17-1.26.38-.81,4.49-4.09,2-6.43,2.68-3.52,1-4.9-.59-6.13-3.36-1.27,1.81-.75,3.35-.89,4.81h0a26.92,26.92,0,0,0-7.85-1c-9.31.08-18.62,0-27.94,0L141,18.41l.06-4,.07-2.09H164.9C177.09,12.33,177.09,12.33,177.16.34Z"/><path class="cls-4" d="M348.09,36.43c-2.42-.5-2.27,2.67-4.17,2.92.68-4.21-1.46-3.25-3.73-2,.41-1.89-.69-4,.63-5.72,1.78-2.33-.05-3-1.61-3.79.85-3.7,1.38-7.23-4.09-7.46-.21-.36.46-1.24-.64-1.06l.67,1c-1.52,3.76-3.95,1.53-6.13.93-3.64-5.12-3.65-5.12-8.74-.69-1.55-.57-4.11,1.69-4.46-.08-1.15-5.83-4.82-3.2-7.87-2.93l-3.61,0c.21-2.55-1.51-3.88-3.28-5.18,0-.75.06-1.5,1-1.78l2.26-.39c3.61,1.74,3.56-1.82,4.88-3.38.73-.85,1.89-1.8.66-2.87s-2.58-1.45-3.66.3l.13,0a2,2,0,0,0,2.29-.44c2.23-3,3.94-1.92,5.57.54-.39,1.16-1.23,2.07.45,3.31a17.18,17.18,0,0,0,10.95,3.75c3-.1,5.19.78,5.58,4.15-.42.94-2.94,1.32-.82,2.89.47.35.81,1.91,1.7.76s2-2.44.16-3.76c-.62-3.25.6-7.6-4.78-8,.26-1,.52-2,.77-2.93,3.7,1.23,7.51-1.89,11,0,3.21,1.76,6-1.9,9-.2-2.54,1.49-4.06,4.94-7.83,4-2.94,1.12-5.52,2.85-5.24,6.31.22,2.65,2.85,1.35,4.44,1.73.24,1.08.42,2.17.73,3.23a2.24,2.24,0,0,0,2,1.76c1.52.14,1.91-.83,2-2.07,2.3-.57,3.44,2.16,5.61,2,1.34,2.44,6.14,5.43-1.07,6.57-.21,0-.17,1.72-.25,2.64-1.45-1.3-2.34-1.06-2.57.95-.78.7-2.55.46-2.45,1.83.08,1.16,1.47.84,2.38,1a16.85,16.85,0,0,1,2.18.72Z"/><path class="cls-5" d="M219.16,22.3a3.56,3.56,0,0,0,3-1.55c1.2-1.59,1.42-2.1,3.74-.32,2.47,1.9,7,.66,9.93-1.33,1.43-1,1.65-1.82,2.57.13.23.48,1.16,1.12,1.5,1,4.68-1.83,10.1,3.26,12.45,1.51,3.72-2.76,8.64,2.74,11-2.86.56-1.34.49.67.88,1,1.77,1.4,3.17,4,5.22-.15,1.2-2.44,4.11-2.75,7-1.81,1.65.54,3.15,3.82,5,1.24,1.64-2.3-1.88-2.91-2.65-4.52,1.41-2.21,3.86-.63,5.82-1.86-.78-2.54-2.2-3.66-4.88-2.43a11.7,11.7,0,0,0-3.41,1.91c-1.47,1.44-2.64,1-3.88-.11-.82-.72-2.34-1-2-2.52s2.11-1.35,3.24-1.89a6.29,6.29,0,0,1,2.43-.36c1.53,0,3.23,0,3.76-1.74.73-2.36-1.45-2-2.68-2.56s-.92-1.64-.93-2.62l9.88,0c.18.42.37.83.56,1.25l.53-1.27,4.1,0c-2.1,1.59,1.48,3.34-.15,4.94L283.78,7l5.3,3.38a.51.51,0,0,1,.2.61,1.14,1.14,0,0,0,.89,1.29h0c-2.16,1.47-5.07,1.82-6.82,4.52l6.47,1.64a1.76,1.76,0,0,1,0,2.4c-3.9-2.15-6.35,1.31-8.75,2.93-2.92,2-3.73,1.29-4.47-1.93-.76,2.19,0,4.59-2.43,5.49l-4.39-3.82c-.77,1.65-.7,4.1-3.55,3.8s-1.5-2.82-2.57-4c-1.22,2.64-1.91,6.61-5.67,2.12-.75-.89-1.08-.5-1.85.2-3.41,3.09-7.34-.71-10.95.61-.14.05-.57-.36-.69-.64-1.07-2.38-1.21-1-1.52.33-.37,1.53-1.65,1.37-2.82,1.33-1.49-.05-1.88-1-2-2.31-.11-1,.49-2.37-.95-3-2.46.82.65,4.78-2.7,4.84-2.76.05-3.56-2.12-3.71-5.68-1.12,5-2.29,7.78-5.91,3.09-.75-1-1.88-1.06-2.41,0-.77,1.6-1.76,2.7-3.38,1.65S219.44,23.54,219.16,22.3Z"/><path class="cls-6" d="M177.16.34c-.07,12-.07,12-12.26,12H141.14c-.53-3-3-1.56-4.68-2,0-.64,0-1.28,0-1.92,6.24.77,4.42-3.84,4.7-7,1.47-1.64,3.42-1,5.16-1C156.59.3,166.87.34,177.16.34Z"/><path class="cls-7" d="M290.67,43.53c.08-1.57-9.48-.63-10.44-1.07-2.21-1,3.2-1,.9-1.07l-.9-1.08C278,39,275,39,273.87,35.89c-.15-.45-1.79-.4-2.75-.58-1.15-1-2.41-2.49-1.66-3.8,1.28-2.23,2.31.77,3.57.62a17.92,17.92,0,0,1,6.28.13c1.1.25,2.51.14,2.62-1.47.09-1.33-.83-2.05-2.09-2.38-1.87-.48-4,.68-5.67-1.05,2.43-.9,1.67-3.3,2.43-5.49.74,3.22,1.55,3.89,4.47,1.93,2.4-1.62,4.85-5.08,8.75-2.94-.44,1.34-1,2.53-2.71,2.5l-.3-.25.35.21A22.6,22.6,0,0,0,288.43,27c1.88,3.43,3.46,6.7-2.41,8.82,4.12-.26,3.93,2.83,5.06,4.73,2.75,2.12,5.34.18,8-.31"/><path class="cls-8" d="M299.07,40.22c-2.65.49-5.24,2.43-8,.31.78-.33,1.6-.74,1.66-1.65.42-6.27,1.37-12.59.87-18.79-.22-2.63,2.61-4.3,1.58-5.55-3.67-4.42-.7-9.51-2.08-14,2.79-.68,4.22,1.66,6.18,2.8-.12.73-.25,1.46-.38,2.19-3.16,2.75-.35,4.74.89,6.92,1.24,2.53-3.18,5.93,1.22,8,0,1-1.82,2-.16,3.11.76,1.2,1.21,2.68,0,3.59a6.6,6.6,0,0,0-2.62,6.07c.08,2-.35,4,1,6.23.13-5.44,2.93-7.53,7.84-7.11.61.89,1.58,1.44,2.34.63,1.18-1.25-.23-1.83-1-2.49l.21-1.88a2,2,0,0,1,2.47-1.07c-.42,2.51.92,4.36,2.29,6.21-.08.71-.17,1.43-.25,2.14a6,6,0,0,1-.51.5c-2.91-.94-5.84-1.95-7.54,1.9Z"/><path class="cls-8" d="M340.39,8.31c3.77.91,5.29-2.54,7.83-4,.95,3.12,2.95,1.59,4.7,1,2.19-.69,2.9-.78,4.71,2,3.49,5.3-.11,8.15-1.65,11.92-2.3-1.51-1.92-4.2-2.17-6.27-.23-1.86.65-3.77-2.25-3.41-1.51.19-4.11-1.3-4.34,1.2-.18,2-1.21,5.71,1.67,6.07,5.64.7,2.08,2.68,1.07,4.45-2.17.18-3.31-2.55-5.61-2L341,16.39C339.32,13.81,343.53,10.77,340.39,8.31Z"/><path class="cls-9" d="M293.11.49c1.38,4.54-1.59,9.63,2.08,14.05,1,1.25-1.8,2.92-1.58,5.55.5,6.2-.45,12.52-.87,18.79-.06.91-.88,1.32-1.66,1.65-1.13-1.9-.94-5-5.06-4.73,5.87-2.12,4.29-5.39,2.41-8.82a22.6,22.6,0,0,1-1.27-3.66l-.05,0c1.7,0,2.27-1.16,2.71-2.5a1.75,1.75,0,0,0,0-2.39c.52-2,2.47-4,.35-6.16h0L289.28,11a.51.51,0,0,0-.2-.61c-.74-2.27,2.1-3.11,2.05-5.11,1.63-1.6-1.95-3.35.15-4.94Z"/><path class="cls-10" d="M350,21.25c1-1.77,4.57-3.75-1.07-4.45-2.88-.36-1.85-4.08-1.67-6.07.23-2.5,2.83-1,4.34-1.2,2.9-.36,2,1.55,2.25,3.41.25,2.07-.13,4.76,2.17,6.27-.71,3.26,1.44,5.64,2.68,8.62-2.43.63-5.55.77-4.69,4.63-2,.68-4.73-.34-5.79,2.5a16.85,16.85,0,0,0-2.18-.72c-.91-.16-2.3.16-2.38-1-.1-1.37,1.67-1.13,2.45-1.83,1-.06,2,.06,2.57-.95.08-.92,0-2.61.25-2.64C356.1,26.68,351.3,23.69,350,21.25Z"/><path class="cls-7" d="M319.19,38.29c-1.62,1.44-3.18,3.13-5.55,1.25l.55-1.26a4.54,4.54,0,0,0,.81-4.21l-.08-.45,1.25-1.39c2.51.48,5.3,1.46,4.54-3.07-.09-.51.89-1.21,1.38-1.83l5.21-1,.71,1.26q0,3.22,0,6.45C323.44,32.12,321.6,35.78,319.19,38.29Z"/><path class="cls-2" d="M136.26,2.39c-7.75.28-15.48-.09-23.28.62-6.31.58-13,.33-19.3-2.06l.24-.06,1.2-.15L107.19.69a4.32,4.32,0,0,0,4.91,0h3.08a1.94,1.94,0,0,0,2.92,0c6.31,0,12.66-1,18.91.67Z"/><path class="cls-11" d="M327.39,7.38c5.38.41,4.16,4.76,4.78,8l-1,.11c-.39-3.37-2.56-4.25-5.58-4.15A17.18,17.18,0,0,1,314.6,7.6c-1.68-1.24-.84-2.15-.45-3.31a8.11,8.11,0,0,1,5,.82c2.94-.56,4.61,1.14,6,3.37.33.45.67.53,1,0Z"/><path class="cls-2" d="M62.07.72c-.3,1.47-1.38,1.62-2.62,1.61q-13.81,0-27.65,0c-1.24,0-2.31-.16-2.6-1.64Z"/><path class="cls-4" d="M319.19,38.29c2.41-2.51,4.25-6.17,8.8-4.27,2.18.59-1.73,5.62,3.11,4.28l-.09-.09C327.1,42.26,323.13,37.83,319.19,38.29Z"/><path class="cls-4" d="M337,38.74c-1.9-1.22-3.94-.87-6-.53l.09.09c-.55-3.15-1.28-6.35,3.84-6,.8.06,1.67-.89,2.51-1.37,3,1.79-.37,4.33.75,6.34Z"/><path class="cls-7" d="M298.91,5.48c.13-.73.26-1.46.38-2.19,2.22,1.21,4.59,1.18,7,.9l-.13,0c1.87,2.77-.88,4.08-1.88,6l-2.25.38C301.73,8.4,299.74,7.3,298.91,5.48Z"/><path class="cls-5" d="M325.12,8.48c-1.38-2.23-3.05-3.93-6-3.37,1.81-1.77,4.42-1.8,6.53-3,2.76-1.53,2.34.78,2.5,2.3-.25,1-.51,2-.77,2.93l-1.23,1.15Z"/><path class="cls-9" d="M314.19,38.28l-.55,1.26c-3.18,1.64-5.95.7-8.55-1.34,1.7-3.85,4.63-2.84,7.54-1.9C312,37.85,312.89,38.24,314.19,38.28Z"/><path class="cls-11" d="M348.18,35c1.06-2.84,3.79-1.82,5.79-2.5.44,1.4-.33,2.55-.74,3.78s-.83,2.79-2.24,3c-1.82.25-2.28-1.49-2.9-2.8Z"/><path class="cls-7" d="M337,38.74c.41-.48.82-1,1.22-1.43h2c2.27-1.22,4.41-2.18,3.73,2C341.46,40.82,339.09,41.22,337,38.74Z"/><path class="cls-2" d="M15.53,1c-4.28,2.9-9,.7-13.55,1.32.08-.31.15-.62.23-.94L3.7.9A39.1,39.1,0,0,1,15.53,1Z"/><path class="cls-2" d="M27.07.7C24,3.62,20.9,2.83,17.73,1A32.5,32.5,0,0,1,27.07.7Z"/><path class="cls-2" d="M91.53,1C88.7,2.7,85.89,3.72,83.2.7A25.6,25.6,0,0,1,91.53,1Z"/><path class="cls-1" d="M112.1.69a4.32,4.32,0,0,1-4.91,0A10.2,10.2,0,0,1,112.1.69Z"/><path class="cls-1" d="M118.1.73a1.94,1.94,0,0,1-2.92,0Z"/><path class="cls-3" d="M287.18.38l-.53,1.27c-.19-.42-.38-.83-.56-1.25Z"/><path class="cls-1" d="M95.12.74l-1.2.15Z"/><path class="cls-1" d="M3.7.9l-1.49.44C2.44.29,3,.44,3.7.9Z"/><path class="cls-12" d="M281.13,41.39c-1.67,1.65-3.79.91-5.7.91q-69.63.09-139.27.07l-134-.08c0-.36.05-.73.08-1.09L136,41.15c1.81,0,3.76.85,5.31-.84h139Z"/><path class="cls-2" d="M2.12,15.31c-.18-3.46,2.29-3,4.44-3,11.41.28,22.82.19,34.24.42,9.54.2,19.14-.57,28.72-.38,10.45.21,20.88-.43,31.39.33,6.84.49,13.93.39,20.91.42a6,6,0,0,0,3.31-1c3.53-2.56,7.18-2,10.93-.78l.3,3-1,.08a37.2,37.2,0,0,1-9.36.94c-31.29,0-62.58.09-93.87-.14-4.84,0-6.72,1.36-6,6.07l-3.91-1c-2.84-6.12-8.35-5-13.47-5-2.15,0-4.3.07-6.44.1Z"/><path class="cls-13" d="M7.13,37.3c-3.82.53-5.62-.9-5-4.94a39.41,39.41,0,0,0,.13-5,83.8,83.8,0,0,0,14.89.3c12.58-.86,25.23,1,37.72-1.28a11.48,11.48,0,0,1,5.44.26c5.84,1.89,11.79.07,17.7.84,7,.91,14-2,21.08-.11,1,4,4,5.25,7.57,4.78,2.56-.34,6-.63,5.57-4.82H136q.18,3.47.38,6.93c-.13,1-.26,2-.38,3-1.62-.27-3.3-1-4.84-.75-11.73,1.72-23.5.25-35.24.76a8.31,8.31,0,0,1-4.79-1c-.17-2-1.2-3.06-3.24-2.94s-1.8,1.6-1.84,2.93a120.44,120.44,0,0,0-14.64-.59,168.39,168.39,0,0,1-28.76-.37c-2.31-.27-4.9-1.16-6.89-.45a22.93,22.93,0,0,1-13.61.42c-.42-2.87-3.05-2.58-4.89-3.41C16,31.34,14.21,31,14,32.53c-.35,2.12,1.79,1.69,3.15,1.84-.4,2.55-2.15,2.13-3.73,1.52A5.26,5.26,0,0,0,7.13,37.3Z"/><path class="cls-14" d="M99.05,27.38C92,25.5,84.93,28.4,78,27.49c-5.91-.77-11.86,1.05-17.7-.84a11.48,11.48,0,0,0-5.44-.26c-12.49,2.26-25.14.42-37.72,1.28a83.8,83.8,0,0,1-14.89-.3v-6c2.92.06,6.08.79,8.67.43,3.73-.52,8,1.75,11.27-1.51l3.91,1c5.31-.35,10.71,1.53,15.75.65,4.39-.76,4,.95,3.8,4.24,2.88-3.82,6.66-6,10.6-5.48,8.46,1.18,16.75-1,25.14-.44,3.14.2,6.42,1.36,9.3.81,9.22-1.75,18.44.25,27.63-.69,1.54-.16,3.5-.52,3.85,2-.74.12-1.6.09-1.53,1.21a.45.45,0,0,0,.32.31c1.12.08,1.09-.78,1.21-1.52,4.4-2.07,9.24-2.1,13.9-3,.13,1.67.25,3.34.38,5-.13,1-.26,2-.38,3H112.19c-3.84-.16-7.82,1.56-11.53-.84C100.41,26.34,99.6,27.07,99.05,27.38Z"/><path class="cls-14" d="M7.13,37.3a5.26,5.26,0,0,1,6.24-1.41c1.58.61,3.33,1,3.73-1.52l5.09,1A22.93,22.93,0,0,0,35.8,34.9c2-.71,4.58.18,6.89.45a168.39,168.39,0,0,0,28.76.37,120.44,120.44,0,0,1,14.64.59,4.17,4.17,0,0,0,5.08,0,8.31,8.31,0,0,0,4.79,1c11.74-.51,23.51,1,35.24-.76,1.54-.22,3.22.48,4.84.75,0,1.28,0,2.55-.07,3.82L2.21,41.2a6.13,6.13,0,0,1-.09-.85C2.38,37,6.09,39.36,7.13,37.3Z"/><path class="cls-15" d="M22.16,20.3c-3.31,3.26-7.54,1-11.27,1.51-2.59.36-5.75-.37-8.67-.43,0-2,0-4,0-5.95,2.15,0,4.3-.08,6.45-.1C13.81,15.28,19.32,14.18,22.16,20.3Z"/><path class="cls-12" d="M274.17,27.36c1.63,1.73,3.8.57,5.67,1.05,1.26.33,2.18,1.05,2.09,2.38-.11,1.61-1.52,1.72-2.62,1.47a17.92,17.92,0,0,0-6.28-.13c-1.26.15-2.29-2.85-3.57-.62-.75,1.31.51,2.77,1.66,3.8,0,.17,0,.41-.08.49-2.18,1.72-6.58-3.07-7.47,2.53-.17-.45-.37-.89-.51-1.35-.74-2.37-2.5-1.69-4.08-1.3-.86.22-1.28,1.48-2.56.87-3.84-1.83-7.87-.25-11.69-.6-3-.29-5.91.28-8.85.22-3.67-.06-7.77-2.56-11,1.25-.41.48-1,.54-1.24.14-2.21-3.11-4.15-4-5.68.5-.15.45-.54.43-.64-.07-1-5.31-4.86-1.89-7.19-2.05-8.64-.58-17.32-.23-26-1.5-4.07-.6-7.95,1.55-12.41,1.17-10.08-.86-20.28-.26-30.43-.25l-.46-1.2.39-6.84c10.07.52,20.17-.82,30.26.67,1.81.27,5.79.61,5.64-3.67h0c4.28,3.42,8.65,5.26,13.44.83a1.49,1.49,0,0,1,1.18.12c.45,2.07,1.09,3.12,3.66,2.2,2.19-.8,1.28-2.89,2.64-5,0,9.45,7.15,1.36,9.48,5a1.41,1.41,0,0,0,2.18,0,3.42,3.42,0,0,0,.46-1.37c.26-1.28,1-1.56,2.16-1.16,4.5,1.53,5.14-1,4.82-4.57l2,1.94c.28,1.24-1.6,2.65-.09,3.62s2.61-.05,3.38-1.65c.53-1.1,1.66-1,2.41,0,3.62,4.69,4.79,1.94,5.91-3.09.15,3.56.95,5.73,3.71,5.68,3.35-.06.24-4,2.7-4.84,1.44.6.84,1.95.95,3,.15,1.31.54,2.26,2,2.31,1.17,0,2.45.2,2.82-1.33.31-1.3.45-2.71,1.52-.33.12.28.55.69.69.64,3.61-1.32,7.54,2.48,10.95-.61.77-.7,1.1-1.09,1.85-.2,3.76,4.49,4.45.52,5.67-2.12,1.07,1.21-.24,3.74,2.57,4s2.78-2.15,3.55-3.8Z"/><path class="cls-5" d="M217.15,20.36c.32,3.55-.32,6.1-4.82,4.57-1.17-.4-1.9-.12-2.16,1.16a3.42,3.42,0,0,1-.46,1.37,1.41,1.41,0,0,1-2.18,0c-2.33-3.66-9.45,4.43-9.48-5-1.36,2.1-.45,4.19-2.64,5-2.57.92-3.21-.13-3.66-2.2a1.49,1.49,0,0,0-1.18-.12c-4.79,4.43-9.16,2.59-13.44-.83.14-1.46-.38-3,.89-4.81,1.23,2.77,2.61,4.34,6.13,3.36,2.34-.65,5.62,1.81,6.43-2.68,0-.21.89-.48,1.26-.38,4,1.15,8,1.78,11.82-.82.64-.43,1.24.08,1.47.81.36,1.14,1.81,1.95,2.2,1.43C210.37,17.15,214,22.06,217.15,20.36Z"/><path class="cls-5" d="M177.13,24.32c.15,4.28-3.83,3.94-5.64,3.67-10.09-1.49-20.19-.15-30.26-.67-.74-1-1.48-2-2.21-3a2.29,2.29,0,0,0,2.32-1c9.32,0,18.63.07,27.94,0A26.92,26.92,0,0,1,177.13,24.32Z"/><path class="cls-10" d="M337.45,31c-.84.48-1.71,1.43-2.51,1.37-5.12-.39-4.39,2.81-3.84,6-4.84,1.34-.93-3.69-3.11-4.28q0-3.23,0-6.45l2.83-1c1.36-.46,3.13,0,4-1.61a1,1,0,0,0-.86-1.47c-1.81-.39-3.66-.63-5.14.85a15.72,15.72,0,0,0-1.49,1.93l-5.21,1c-1-.29-1.73-1.4-3-1-2.54,1.71-2.79-1.74-4.46-2-.94-.61.09-3.06-2.27-2.35-4.18,1.25-4-1.88-4.45-4.44,3.05-.27,6.72-2.9,7.87,2.93.35,1.77,2.91-.49,4.46.08.17,1.65-1.1,3.83,1.41,4.61,1,.32,2.23,0,3.35-.08-1.3-4,2.66-2.55,4-3.84,2.18.6,4.61,2.83,6.13-.93l0,0c5.47.23,4.94,3.76,4.09,7.46C337.66,28.32,337.36,29.54,337.45,31Z"/><path class="cls-12" d="M308,17.55c.41,2.56.27,5.69,4.45,4.44,2.36-.71,1.33,1.74,2.27,2.35.1,2.51-1.62,2.95-3.57,3.11a2,2,0,0,0-2.47,1.07l-1.32-1.24c-.41-1-.83-2-2.23-1.8l-1-1.11c-1.83-1.43,8.25-4.86-.85-5.06l1.15-1.8Z"/><path class="cls-7" d="M329,21.25c-1.32,1.29-5.28-.16-4,3.84-1.12.05-2.34.4-3.35.08-2.51-.78-1.24-3-1.41-4.61C325.37,16.13,325.38,16.13,329,21.25Z"/><path class="cls-10" d="M340.39,8.31c3.14,2.46-1.07,5.5.63,8.08l-1.43,0c-1.59-.38-4.22.92-4.44-1.73C334.87,11.16,337.45,9.43,340.39,8.31Z"/><path class="cls-15" d="M304.34,17.51l-1.15,1.8L301,20.37c-4.4-2,0-5.44-1.22-8l1.26-.07C302.83,13.63,304.55,15,304.34,17.51Z"/><path class="cls-5" d="M337.45,31c-.09-1.43.21-2.65,1.76-3.16,1.56.82,3.39,1.46,1.61,3.79-1.32,1.72-.22,3.83-.63,5.72h-2C337.08,35.3,340.42,32.76,337.45,31Z"/><path class="cls-9" d="M301.06,12.33l-1.26.07c-1.24-2.18-4.05-4.17-.89-6.92.83,1.82,2.82,2.92,3.12,5.06C301.12,10.83,301.09,11.58,301.06,12.33Z"/><path class="cls-16" d="M304.28,10.16c1-1.87,3.75-3.18,1.88-5.95,1.08-1.75,2.54-1.28,3.66-.3s.07,2-.66,2.87C307.84,8.34,307.89,11.9,304.28,10.16Z"/><path class="cls-7" d="M339.59,16.35l1.43,0,3.33,2.88c-.1,1.24-.49,2.21-2,2.07a2.24,2.24,0,0,1-2-1.76C340,18.52,339.83,17.43,339.59,16.35Z"/><path class="cls-10" d="M331.13,15.5l1-.11c1.84,1.32.65,2.7-.16,3.76s-1.23-.41-1.7-.76C328.19,16.82,330.71,16.44,331.13,15.5Z"/><path class="cls-11" d="M348.64,30.46c-.6,1-1.61.89-2.57.95C346.3,29.4,347.19,29.16,348.64,30.46Z"/><path class="cls-10" d="M335.15,20.32l-.67-1c1.1-.18.43.7.64,1.06Z"/><path class="cls-7" d="M290.19,12.31c2.12,2.18.17,4.13-.35,6.16l-6.47-1.64C285.12,14.13,288,13.78,290.19,12.31Z"/><path class="cls-7" d="M291.13,5.29c.05,2-2.79,2.84-2.05,5.11L283.78,7Z"/><path class="cls-7" d="M289.28,11l.89,1.29A1.14,1.14,0,0,1,289.28,11Z"/><path class="cls-5" d="M141.3,35.36c10.15,0,20.35-.61,30.43.25,4.46.38,8.34-1.77,12.41-1.17,8.64,1.27,17.32.92,26,1.5,2.33.16,6.18-3.26,7.19,2.05.1.5.49.52.64.07,1.53-4.48,3.47-3.61,5.68-.5.28.4.83.34,1.24-.14,3.26-3.81,7.36-1.31,11-1.25,2.94.06,5.81-.51,8.85-.22,3.82.35,7.85-1.23,11.69.6,1.28.61,1.7-.65,2.56-.87,1.58-.39,3.34-1.07,4.08,1.3.14.46.34.9.51,1.35.89-5.6,5.29-.81,7.47-2.53.1-.08.06-.32.08-.49,1,.18,2.6.13,2.75.58C275,39,278,39,280.23,40.31H177.09c-1.12-1.39-2.7-1-4.13-1q-13.34,0-26.66,0c-1.43,0-3-.43-4.14,1h-.88C141.28,38.66,141.29,37,141.3,35.36Z"/><path class="cls-9" d="M287.16,23.32l-.35-.21.3.25Z"/><path class="cls-9" d="M304,24.37l1,1.11a1.82,1.82,0,0,0,2.23,1.8l1.32,1.24-.21,1.88c-1.17.11-1.21,1-1.3,1.86-4.91-.42-7.71,1.67-7.84,7.11-1.37-2.2-.94-4.24-1-6.23a6.6,6.6,0,0,1,2.62-6.07c1.19-.91.74-2.39,0-3.59A4.76,4.76,0,0,1,304,24.37Z"/><path class="cls-4" d="M311.1,27.45c1.95-.16,3.67-.6,3.57-3.11,1.67.24,1.92,3.69,4.46,2-.18,2.37-4.47,2.69-3,5.91l-1.25,1.39-1.53,0C312,31.81,310.68,30,311.1,27.45Z"/><path class="cls-2" d="M304,24.37a4.76,4.76,0,0,0-3.18-.89c-1.66-1.13.17-2.07.16-3.11l2.17-1.06C312.29,19.51,302.21,22.94,304,24.37Z"/><path class="cls-4" d="M307.12,32.26c.09-.86.13-1.75,1.3-1.86.81.66,2.22,1.24,1,2.49C308.7,33.7,307.73,33.15,307.12,32.26Z"/><path class="cls-10" d="M314.19,38.28c-1.3,0-2.17-.43-1.56-2a6,6,0,0,0,.51-.5L315,34.07A4.54,4.54,0,0,1,314.19,38.28Z"/><path class="cls-13" d="M315,34.07l-1.86,1.73c.08-.71.17-1.43.25-2.14l1.53,0Z"/><path class="cls-4" d="M327.3,26.31a15.72,15.72,0,0,1,1.49-1.93c1.48-1.48,3.33-1.24,5.14-.85a1,1,0,0,1,.86,1.47c-.82,1.62-2.59,1.15-4,1.61l-2.83,1C327.78,27.15,327.54,26.73,327.3,26.31Z"/><path class="cls-11" d="M316.17,32.23c-1.51-3.22,2.78-3.54,3-5.91,1.23-.39,2,.72,3,1-.49.62-1.47,1.32-1.38,1.83C321.47,33.69,318.68,32.71,316.17,32.23Z"/><path class="cls-4" d="M325.12,8.48l1,0C325.79,9,325.45,8.93,325.12,8.48Z"/><path class="cls-3" d="M142.16,40.31c1.13-1.39,2.71-1,4.14-1q13.32,0,26.66,0c1.43,0,3-.43,4.13,1Z"/><path class="cls-15" d="M135.32,14.41l1.1,2.88c-.13.69-.25,1.37-.38,2.06-4.66.88-9.5.91-13.9,3h0c-.35-2.48-2.31-2.12-3.85-2-9.19.94-18.41-1.06-27.63.69-2.88.55-6.16-.61-9.3-.81-8.39-.52-16.68,1.62-25.14.44-3.94-.55-7.72,1.66-10.6,5.48.23-3.29.59-5-3.8-4.24-5,.88-10.44-1-15.75-.65-.7-4.71,1.18-6.11,6-6.07,31.29.23,62.58.1,93.87.14A37.2,37.2,0,0,0,135.32,14.41Z"/><path class="cls-15" d="M99.05,27.38c.55-.31,1.36-1,1.61-.88,3.71,2.4,7.69.68,11.53.84.42,4.19-3,4.48-5.57,4.82C103.1,32.63,100.07,31.35,99.05,27.38Z"/><path class="cls-5" d="M136.26,1.39l.75-1,4.13-.07c-.28,3.2,1.54,7.81-4.7,7Z"/><path class="cls-5" d="M136.36,13.33l-.3-3,.4-1.06c1.65.48,4.15-1,4.68,2,0,.69,0,1.39-.07,2.08Z"/><path class="cls-10" d="M141.34,22.3a2.29,2.29,0,0,1-2.32,1l-2.6,0c-.13-1.67-.25-3.34-.38-5,.13-.69.25-1.37.38-2.06,1.33,1.19,3,1,4.59,1.12Z"/><path class="cls-7" d="M141,17.41c-1.6-.09-3.26.07-4.59-1.12l-1.1-2.88,1-.08,4.71.08Z"/><path class="cls-10" d="M141.3,34.36c0,1.65,0,3.3,0,5-1.55,1.69-3.5.83-5.31.84,0-1.28,0-2.55.07-3.83.12-1,.25-2,.38-3l4.42-.11Z"/><path class="cls-4" d="M140.84,33.16l-4.42.11q-.19-3.47-.38-6.93c.12-1,.25-2,.38-3l2.6,0c.73,1,1.47,2,2.21,3Z"/><g class="cls-17"><path class="cls-8" d="M136.12,1.41l.75-1L141,.34c-.27,3.21,1.54,7.81-4.7,7Z"/><path class="cls-8" d="M136.22,13.34l-.3-3c.13-.36.27-.71.4-1.07,1.65.48,4.15-1,4.68,2,0,.7-.05,1.39-.07,2.09Z"/><path class="cls-8" d="M141.2,22.31a2.31,2.31,0,0,1-2.32,1l-2.6,0c-.13-1.67-.25-3.35-.38-5,.13-.68.26-1.37.38-2.05,1.33,1.19,3,1,4.59,1.12Z"/><path class="cls-8" d="M140.87,17.43c-1.6-.09-3.26.07-4.59-1.12-.36-1-.73-1.93-1.1-2.89l1-.08,4.71.09Z"/><path class="cls-8" d="M141.16,34.37c0,1.65,0,3.3,0,5-1.55,1.7-3.5.83-5.31.84,0-1.27,0-2.55.07-3.82.13-1,.25-2,.38-3.06l4.42-.11Z"/><path class="cls-8" d="M140.7,33.17l-4.42.11c-.13-2.31-.25-4.62-.38-6.93.13-1,.25-2,.38-3l2.6,0,2.21,3Z"/></g><path class="cls-15" d="M22.19,35.32l-5.09-1c-1.36-.15-3.5.28-3.15-1.84.26-1.57,2.08-1.19,3.35-.62C19.14,32.74,21.77,32.45,22.19,35.32Z"/><path class="cls-15" d="M91.17,36.32a4.17,4.17,0,0,1-5.08,0c0-1.33-.1-2.82,1.84-2.93S91,34.33,91.17,36.32Z"/><path class="cls-15" d="M122.14,22.33c-.12.74-.09,1.6-1.21,1.52a.45.45,0,0,1-.32-.31c-.07-1.12.79-1.09,1.53-1.21Z"/><path class="cls-2" d="M307.31,27.28a1.82,1.82,0,0,1-2.23-1.8C306.48,25.27,306.9,26.26,307.31,27.28Z"/></g></svg>
