<svg class="smallGreen" id="green" xmlns="http://www.w3.org/2000/svg" viewBox="0 0 359.24 42.23"><defs><style>.clss-1{fill:#f9a458;}.clss-2{fill:#f6963a;}.clss-3{fill:#e7e8e8;}.clss-4{fill:#6e6663;}.clss-5{fill:#d7d7d4;}.clss-6{fill:#f4f5f5;}.clss-7{fill:#c0b8b0;}.clss-8{fill:#63bc46;}.clss-9{fill:#da8639;}.clss-10{fill:#9a938a;}.clss-11{fill:#514d4c;}.clss-12{fill:#cbcdcd;}.clss-13{fill:#d36928;}.clss-14{fill:#e27826;}.clss-15{fill:#ef8523;}.clss-16{fill:#fbfdfe;}.clss-17{opacity:0.48;}</style></defs><title>smallGreen</title><path class="clss-1" d="M91.67.72a1.88,1.88,0,0,1,2.15,0c6.24,2.39,13,2.64,19.3,2.06,7.79-.7,15.52-.34,23.27-.62l.19,6c0,.64,0,1.28,0,1.92-.14.35-.27.71-.41,1.06-3.74-1.18-7.39-1.78-10.93.78a6,6,0,0,1-3.3,1c-7,0-14.07.07-20.92-.42-10.51-.76-20.93-.12-31.38-.33-9.58-.19-19.19.58-28.73.38-11.41-.23-22.83-.13-34.24-.42-2.14,0-4.61-.48-4.44,3-2.24,2.66.54,6.42-2,9V3.1l1.83-1C6.62,1.43,11.39,3.63,15.67.73a1.88,1.88,0,0,1,2.2,0C21,2.6,24.18,3.39,27.21.47h2.13c.28,1.47,1.36,1.64,2.6,1.63q13.83,0,27.65,0c1.23,0,2.32-.14,2.62-1.61a153.61,153.61,0,0,1,21.13,0C86,3.49,88.84,2.47,91.67.72Z"/><path class="clss-2" d="M.28,24.1c2.51-2.6-.27-6.36,2-9l.13.12c0,2,0,4,0,5.95v6a39.3,39.3,0,0,1-.13,5c-.58,4,1.21,5.48,5,4.94-1,2.07-4.74-.27-5,3l-2-2Z"/><path class="clss-3" d="M177.29.11,276.35.2c0,1-.17,2.12.93,2.62s3.41.2,2.68,2.56c-.54,1.73-2.23,1.7-3.76,1.75a6.08,6.08,0,0,0-2.43.35c-1.13.55-2.88.25-3.24,1.89s1.2,1.8,2,2.52c1.24,1.09,2.4,1.56,3.88.11a11.7,11.7,0,0,1,3.41-1.91c2.68-1.23,4.1-.11,4.87,2.43-2,1.23-4.4-.35-5.81,1.86.77,1.61,4.29,2.22,2.65,4.52-1.84,2.58-3.35-.7-5-1.24-2.87-.94-5.78-.63-7,1.81-2,4.2-3.46,1.55-5.22.15-.4-.32-.32-2.33-.89-1-2.37,5.6-7.29.1-11,2.87C250.11,23.24,244.7,18.15,240,20c-.34.14-1.27-.5-1.5-1-.93-1.95-1.14-1.1-2.57-.13-2.93,2-7.46,3.23-9.94,1.33-2.32-1.78-2.53-1.27-3.73.32a3.56,3.56,0,0,1-3,1.55l-2-1.94c-3.11,1.7-6.78-3.2-9.82.87-.39.52-1.85-.29-2.2-1.43-.23-.73-.83-1.24-1.47-.81-3.8,2.6-7.77,2-11.82.83-.37-.11-1.22.16-1.26.37-.81,4.49-4.1,2-6.43,2.68-3.52,1-4.9-.59-6.13-3.36-1.28,1.81-.75,3.35-.89,4.81h0a26.85,26.85,0,0,0-7.84-1c-9.31.08-18.63,0-27.94,0-.11-1.63-.22-3.26-.34-4.89l.06-4,.08-2.08H165C177.23,12.1,177.23,12.1,177.29.11Z"/><path class="clss-4" d="M348.22,36.2c-2.42-.5-2.26,2.67-4.16,2.92.67-4.21-1.46-3.25-3.74-2,.42-1.89-.68-4,.64-5.72,1.78-2.33-.06-3-1.61-3.79.85-3.7,1.38-7.23-4.09-7.46-.21-.36.45-1.24-.65-1.06l.68,1c-1.52,3.76-4,1.53-6.13.93-3.64-5.12-3.66-5.12-8.75-.69-1.54-.57-4.11,1.69-4.45-.08-1.15-5.83-4.82-3.2-7.87-2.93l-3.61,0c.21-2.55-1.51-3.88-3.28-5.17,0-.76.06-1.51,1-1.79l2.26-.39C308,11.67,308,8.11,309.3,6.55c.72-.85,1.89-1.8.66-2.87s-2.58-1.45-3.67.3l.14,0a2,2,0,0,0,2.29-.44c2.23-3,3.94-1.92,5.57.54-.4,1.16-1.24,2.07.45,3.31a17.12,17.12,0,0,0,10.95,3.75c3-.1,5.19.78,5.58,4.15-.42.94-2.94,1.32-.82,2.89.47.35.8,1.91,1.69.76s2-2.44.17-3.76c-.62-3.25.6-7.6-4.78-8l.77-2.93c3.69,1.23,7.51-1.89,11,0,3.21,1.76,6-1.9,9-.19-2.54,1.48-4.07,4.93-7.83,4-2.94,1.13-5.52,2.85-5.24,6.31.22,2.65,2.85,1.36,4.44,1.73.23,1.08.42,2.17.73,3.23a2.25,2.25,0,0,0,2,1.77c1.52.13,1.9-.84,2-2.08,2.3-.57,3.44,2.16,5.61,2,1.34,2.44,6.14,5.43-1.07,6.57-.22,0-.17,1.72-.25,2.64-1.45-1.3-2.34-1.06-2.57.95-.79.7-2.55.46-2.46,1.83.09,1.16,1.48.84,2.39,1a15.41,15.41,0,0,1,2.18.71C348.29,35.22,348.26,35.71,348.22,36.2Z"/><path class="clss-5" d="M219.3,22.07a3.56,3.56,0,0,0,3-1.55c1.2-1.59,1.41-2.1,3.73-.32,2.48,1.9,7,.66,9.94-1.33,1.43-1,1.64-1.82,2.57.13.23.48,1.16,1.12,1.5,1,4.68-1.83,10.09,3.26,12.44,1.52,3.73-2.77,8.65,2.73,11-2.87.57-1.34.49.67.89,1,1.76,1.4,3.17,4.05,5.22-.15,1.19-2.44,4.1-2.75,7-1.81,1.64.54,3.15,3.82,5,1.24,1.64-2.3-1.88-2.91-2.65-4.52,1.41-2.21,3.85-.63,5.81-1.86-.77-2.54-2.19-3.66-4.87-2.43A11.7,11.7,0,0,0,276.43,12c-1.48,1.45-2.64,1-3.88-.11-.82-.72-2.35-1-2-2.52s2.11-1.34,3.24-1.89a6.08,6.08,0,0,1,2.43-.35c1.53,0,3.22,0,3.76-1.75.73-2.36-1.45-2-2.68-2.56s-.93-1.64-.93-2.62l9.87,0c.19.42.38.83.56,1.25l.54-1.26,4.09,0c-2.1,1.59,1.49,3.34-.15,5l-7.34,1.72,5.3,3.39a.5.5,0,0,1,.2.6,1.13,1.13,0,0,0,.89,1.29h0c-2.15,1.47-5.07,1.82-6.81,4.52L290,18.24a1.75,1.75,0,0,1,0,2.4c-3.91-2.15-6.35,1.32-8.75,2.93-2.93,2-3.73,1.29-4.48-1.93-.75,2.19,0,4.59-2.42,5.49l-4.39-3.82c-.77,1.66-.7,4.1-3.56,3.81s-1.49-2.82-2.56-4c-1.22,2.64-1.91,6.61-5.67,2.12-.75-.89-1.08-.5-1.85.2-3.41,3.1-7.34-.71-11,.61-.14,0-.56-.36-.68-.64-1.07-2.38-1.22-1-1.53.33-.36,1.54-1.65,1.37-2.81,1.33-1.49-.05-1.88-1-2-2.31-.11-1,.49-2.37-1-3-2.46.83.65,4.78-2.7,4.84-2.76.05-3.56-2.12-3.72-5.68-1.11,5-2.28,7.78-5.9,3.09-.75-1-1.89-1.06-2.41,0-.77,1.6-1.76,2.7-3.39,1.65S219.57,23.31,219.3,22.07Z"/><path class="clss-6" d="M177.29.11c-.06,12-.06,12-12.25,12H141.28c-.53-3-3-1.56-4.68-2,0-.64,0-1.28,0-1.92,6.24.77,4.42-3.83,4.7-7,1.47-1.63,3.42-1,5.16-1C156.72.07,167,.11,177.29.11Z"/><path class="clss-7" d="M290.81,43.3c.08-1.57-9.49-.62-10.45-1.07-2.2-1,3.2-1,.91-1.07l-.91-1.08c-2.23-1.27-5.27-1.3-6.35-4.42-.16-.45-1.8-.4-2.75-.58-1.15-1-2.42-2.48-1.66-3.8,1.28-2.23,2.3.77,3.56.62a18,18,0,0,1,6.29.13c1.09.26,2.51.14,2.62-1.47.09-1.33-.83-2-2.09-2.38-1.87-.48-4,.68-5.67-1.05,2.42-.9,1.67-3.3,2.42-5.49.75,3.22,1.55,3.89,4.48,1.93,2.4-1.61,4.84-5.08,8.74-2.94-.43,1.34-1,2.53-2.7,2.5l-.3-.25.35.21a22.6,22.6,0,0,0,1.27,3.66c1.87,3.43,3.46,6.7-2.42,8.82,4.13-.26,3.93,2.84,5.07,4.73,2.75,2.12,5.34.18,8-.31"/><path class="clss-8" d="M299.21,40c-2.65.49-5.24,2.43-8,.31.77-.33,1.6-.74,1.66-1.65.42-6.27,1.37-12.59.86-18.79-.21-2.63,2.62-4.3,1.59-5.55-3.67-4.42-.7-9.51-2.09-14,2.8-.68,4.22,1.66,6.19,2.8-.13.73-.25,1.46-.38,2.19-3.16,2.75-.36,4.74.88,6.93,1.24,2.52-3.18,5.92,1.23,8,0,1-1.82,2-.16,3.11.76,1.2,1.21,2.68,0,3.6a6.56,6.56,0,0,0-2.61,6.06c.08,2-.35,4,1,6.23.13-5.44,2.93-7.53,7.84-7.11.61.89,1.58,1.44,2.34.63,1.18-1.25-.23-1.83-1-2.49l.21-1.88a2,2,0,0,1,2.47-1.07c-.42,2.51.91,4.37,2.29,6.21-.09.71-.17,1.43-.25,2.14a6,6,0,0,1-.51.5c-2.91-.94-5.84-1.94-7.54,1.9Z"/><path class="clss-8" d="M340.53,8.08c3.76.91,5.29-2.54,7.83-4,.95,3.11,2.94,1.58,4.69,1,2.2-.69,2.9-.78,4.72,2,3.49,5.3-.11,8.15-1.65,11.92-2.31-1.51-1.92-4.2-2.18-6.27-.23-1.86.66-3.77-2.24-3.41-1.51.19-4.11-1.3-4.34,1.2-.18,2-1.21,5.71,1.66,6.07,5.65.7,2.09,2.68,1.08,4.45-2.17.18-3.31-2.55-5.61-2l-3.33-2.88C339.46,13.58,343.67,10.54,340.53,8.08Z"/><path class="clss-9" d="M293.24.26c1.39,4.54-1.58,9.63,2.09,14.05,1,1.25-1.8,2.92-1.59,5.55.51,6.2-.44,12.52-.86,18.79-.06.91-.89,1.32-1.66,1.65-1.14-1.89-.94-5-5.07-4.73,5.88-2.12,4.29-5.39,2.42-8.82a22.6,22.6,0,0,1-1.27-3.66l-.05,0c1.7,0,2.27-1.16,2.7-2.5a1.74,1.74,0,0,0,0-2.39c.52-2,2.47-4,.34-6.16h0l-.89-1.29a.52.52,0,0,0-.2-.61c-.74-2.27,2.1-3.11,2-5.1,1.64-1.61-1.95-3.36.15-4.95Z"/><path class="clss-10" d="M350.1,21c1-1.77,4.57-3.75-1.08-4.45-2.87-.36-1.84-4.07-1.66-6.07.23-2.5,2.83-1,4.34-1.2,2.9-.36,2,1.55,2.24,3.41.26,2.07-.13,4.76,2.18,6.27-.71,3.26,1.44,5.64,2.67,8.62-2.42.63-5.55.78-4.68,4.63-2,.68-4.73-.34-5.79,2.5a15.41,15.41,0,0,0-2.18-.71c-.91-.17-2.3.15-2.39-1-.09-1.37,1.67-1.13,2.46-1.83,1-.06,2,.06,2.57-.95.08-.92,0-2.6.25-2.64C356.24,26.45,351.44,23.46,350.1,21Z"/><path class="clss-7" d="M319.33,38.06c-1.62,1.44-3.19,3.13-5.55,1.25l.55-1.26a4.56,4.56,0,0,0,.81-4.21l-.08-.45L316.31,32c2.51.48,5.3,1.46,4.54-3.06-.09-.52.89-1.22,1.37-1.84l5.22-1,.71,1.26,0,6.45C323.58,31.89,321.74,35.56,319.33,38.06Z"/><path class="clss-2" d="M136.39,2.16c-7.75.28-15.48-.08-23.27.62-6.32.58-13.06.33-19.3-2.06l.23-.06L95.26.51l12.06,0a4.34,4.34,0,0,0,4.92,0h3.08a1.94,1.94,0,0,0,2.92,0c6.31,0,12.66-1,18.91.67Z"/><path class="clss-11" d="M327.53,7.15c5.38.41,4.16,4.76,4.78,8l-1,.11c-.39-3.37-2.56-4.25-5.58-4.15a17.12,17.12,0,0,1-10.95-3.75c-1.69-1.24-.85-2.15-.45-3.31a8,8,0,0,1,5,.83c2.95-.57,4.62,1.13,6,3.36.32.45.67.53,1,.05Z"/><path class="clss-2" d="M62.21.49C61.91,2,60.82,2.11,59.59,2.1q-13.83,0-27.65,0c-1.24,0-2.32-.16-2.6-1.63Z"/><path class="clss-4" d="M319.33,38.06c2.41-2.5,4.25-6.17,8.79-4.27,2.19.59-1.73,5.62,3.12,4.28l-.09-.09C327.24,42,323.27,37.6,319.33,38.06Z"/><path class="clss-4" d="M337.12,38.51c-1.9-1.22-3.94-.87-6-.53l.09.09c-.55-3.15-1.28-6.35,3.84-6,.8.06,1.67-.89,2.51-1.37,3,1.79-.37,4.33.75,6.34Z"/><path class="clss-7" d="M299.05,5.25c.13-.73.25-1.46.38-2.19,2.22,1.21,4.59,1.18,7,.9l-.14,0c1.87,2.77-.87,4.08-1.87,5.95l-2.26.39C301.86,8.17,299.87,7.07,299.05,5.25Z"/><path class="clss-5" d="M325.26,8.25c-1.38-2.23-3.05-3.93-6-3.36,1.82-1.78,4.42-1.81,6.53-3,2.77-1.53,2.35.79,2.51,2.3l-.77,2.93L326.29,8.3Z"/><path class="clss-9" d="M314.33,38.05l-.55,1.26c-3.18,1.65-5.95.7-8.55-1.34,1.7-3.84,4.63-2.84,7.53-1.9C312.16,37.62,313,38,314.33,38.05Z"/><path class="clss-11" d="M348.32,34.73c1.06-2.84,3.79-1.82,5.79-2.5.44,1.4-.33,2.55-.74,3.78s-.84,2.79-2.24,3c-1.82.26-2.28-1.49-2.91-2.8C348.26,35.71,348.29,35.22,348.32,34.73Z"/><path class="clss-7" d="M337.12,38.51c.4-.48.81-.95,1.22-1.43h2c2.27-1.22,4.4-2.18,3.73,2C341.6,40.59,339.23,41,337.12,38.51Z"/><path class="clss-2" d="M15.67.73c-4.28,2.9-9,.7-13.56,1.33l.24-.95L3.84.67A39.42,39.42,0,0,1,15.67.73Z"/><path class="clss-2" d="M27.21.47c-3,2.92-6.17,2.13-9.34.27A32.5,32.5,0,0,1,27.21.47Z"/><path class="clss-2" d="M91.67.72C88.84,2.47,86,3.49,83.34.47A25.88,25.88,0,0,1,91.67.72Z"/><path class="clss-1" d="M112.24.46a4.34,4.34,0,0,1-4.92,0A10.24,10.24,0,0,1,112.24.46Z"/><path class="clss-1" d="M118.24.5a1.94,1.94,0,0,1-2.92,0Z"/><path class="clss-3" d="M287.32.16l-.54,1.26c-.18-.42-.37-.83-.56-1.25Z"/><path class="clss-1" d="M95.26.51,94.05.66Z"/><path class="clss-1" d="M3.84.67l-1.49.44C2.58.06,3.16.21,3.84.67Z"/><path class="clss-12" d="M281.27,41.16c-1.68,1.65-3.79.91-5.7.91q-69.63.09-139.27.07l-134-.08L2.35,41l133.76,0c1.81,0,3.76.85,5.3-.84h139Z"/><path class="clss-2" d="M2.25,15.08c-.17-3.46,2.3-3,4.44-3,11.41.29,22.83.19,34.24.42,9.54.2,19.15-.57,28.73-.38,10.45.21,20.87-.43,31.38.33,6.85.49,13.94.4,20.92.42a6,6,0,0,0,3.3-1c3.54-2.56,7.19-2,10.93-.78l.3,3-1,.08a36.75,36.75,0,0,1-9.36.94c-31.29,0-62.58.09-93.87-.14-4.85,0-6.72,1.36-6,6.08l-3.91-1c-2.84-6.12-8.35-5-13.47-5-2.15,0-4.3.07-6.45.11Z"/><path class="clss-13" d="M7.26,37.07c-3.82.54-5.61-.9-5-4.94a39.3,39.3,0,0,0,.13-5,84.73,84.73,0,0,0,14.89.29c12.57-.86,25.23,1,37.72-1.28a11.49,11.49,0,0,1,5.44.26c5.84,1.89,11.79.07,17.7.84,7,.91,14-2,21.08-.11,1,4,4,5.25,7.57,4.78,2.56-.34,6-.63,5.57-4.82h23.84l.39,6.93-.39,3.05c-1.61-.27-3.29-1-4.83-.75-11.73,1.72-23.51.25-35.24.76a8.22,8.22,0,0,1-4.79-1c-.17-2-1.2-3.06-3.25-2.94s-1.79,1.6-1.83,2.93a120.52,120.52,0,0,0-14.65-.59,168.28,168.28,0,0,1-28.75-.37c-2.31-.27-4.9-1.16-6.89-.45a22.93,22.93,0,0,1-13.61.42c-.42-2.87-3-2.57-4.89-3.4-1.27-.58-3.09-1-3.35.61-.35,2.12,1.79,1.69,3.15,1.84-.41,2.55-2.15,2.14-3.73,1.52A5.29,5.29,0,0,0,7.26,37.07Z"/><path class="clss-14" d="M99.19,27.15c-7.06-1.88-14.12,1-21.08.11-5.91-.77-11.86,1-17.7-.84A11.49,11.49,0,0,0,55,26.16c-12.49,2.26-25.15.42-37.72,1.28a84.73,84.73,0,0,1-14.89-.29v-6c2.92.07,6.08.79,8.67.43,3.73-.52,8,1.75,11.27-1.51l3.91,1c5.31-.36,10.7,1.52,15.75.64,4.39-.76,4,1,3.8,4.24,2.88-3.82,6.65-6,10.6-5.48,8.46,1.19,16.75-1,25.14-.44,3.14.2,6.41,1.36,9.3.81,9.22-1.75,18.44.25,27.62-.69,1.55-.16,3.51-.52,3.85,2-.73.12-1.59.09-1.52,1.21a.44.44,0,0,0,.32.31c1.12.08,1.09-.78,1.21-1.52,4.4-2.07,9.24-2.1,13.9-3,.12,1.67.25,3.34.38,5l-.39,3H112.33c-3.84-.15-7.82,1.56-11.53-.84C100.55,26.11,99.74,26.84,99.19,27.15Z"/><path class="clss-14" d="M7.26,37.07a5.29,5.29,0,0,1,6.25-1.41c1.58.62,3.32,1,3.73-1.52l5.09,1a22.93,22.93,0,0,0,13.61-.42c2-.71,4.58.18,6.89.45a168.28,168.28,0,0,0,28.75.37,118.56,118.56,0,0,1,14.65.6,4.19,4.19,0,0,0,5.08,0,8.22,8.22,0,0,0,4.79,1c11.73-.51,23.51,1,35.24-.76,1.54-.22,3.22.48,4.83.75l-.06,3.83L2.35,41a7.89,7.89,0,0,1-.1-.85C2.52,36.8,6.23,39.14,7.26,37.07Z"/><path class="clss-15" d="M22.3,20.07c-3.31,3.26-7.54,1-11.27,1.51-2.59.36-5.75-.36-8.67-.43,0-2,0-4,0-5.95,2.15,0,4.3-.08,6.45-.1C14,15.05,19.46,14,22.3,20.07Z"/><path class="clss-12" d="M274.31,27.13c1.63,1.73,3.8.57,5.67,1.05,1.26.33,2.18,1.05,2.09,2.38-.11,1.61-1.53,1.73-2.62,1.47a18,18,0,0,0-6.29-.13c-1.26.15-2.28-2.85-3.56-.62-.76,1.32.51,2.77,1.66,3.81,0,.16,0,.4-.08.48-2.19,1.72-6.58-3.07-7.47,2.53-.17-.45-.37-.89-.51-1.35-.74-2.37-2.51-1.69-4.08-1.3-.86.22-1.28,1.48-2.57.87-3.83-1.83-7.87-.24-11.68-.6-3-.29-5.91.28-8.85.23-3.68-.07-7.77-2.57-11,1.24-.41.48-1,.54-1.24.14-2.21-3.1-4.15-4-5.68.5-.15.45-.54.43-.64-.07-1-5.31-4.86-1.89-7.19-2-8.65-.58-17.32-.23-26-1.5-4.06-.59-7.94,1.55-12.41,1.17-10.07-.86-20.27-.26-30.42-.25l-.46-1.2.38-6.84c10.07.52,20.17-.82,30.26.67,1.82.27,5.8.62,5.64-3.67h0c4.28,3.42,8.65,5.27,13.44.83a1.49,1.49,0,0,1,1.18.12c.44,2.07,1.08,3.13,3.65,2.2,2.2-.8,1.29-2.89,2.65-5,0,9.45,7.15,1.36,9.48,5a1.41,1.41,0,0,0,2.18,0,3.42,3.42,0,0,0,.46-1.37c.26-1.28,1-1.56,2.16-1.16,4.49,1.53,5.14-1,4.82-4.57l2,1.94c.27,1.24-1.6,2.65-.1,3.62s2.62-.05,3.39-1.65c.52-1.1,1.66-1,2.41,0,3.62,4.69,4.79,1.94,5.9-3.09.16,3.56,1,5.73,3.72,5.68,3.35-.06.24-4,2.7-4.84,1.44.6.84,1.95,1,3,.15,1.32.54,2.26,2,2.31,1.16,0,2.45.21,2.81-1.33.31-1.3.46-2.71,1.53-.33.12.28.54.69.68.64,3.62-1.32,7.55,2.49,11-.61.77-.7,1.1-1.09,1.85-.2,3.76,4.49,4.45.52,5.67-2.12,1.07,1.22-.24,3.74,2.56,4s2.79-2.15,3.56-3.81Z"/><path class="clss-5" d="M217.29,20.13c.32,3.55-.33,6.1-4.82,4.57-1.17-.4-1.9-.12-2.16,1.16a3.42,3.42,0,0,1-.46,1.37,1.41,1.41,0,0,1-2.18,0c-2.33-3.66-9.45,4.43-9.48-5-1.36,2.1-.45,4.19-2.65,5-2.57.93-3.21-.13-3.65-2.2a1.49,1.49,0,0,0-1.18-.12c-4.79,4.44-9.16,2.59-13.44-.83.14-1.46-.39-3,.89-4.81,1.23,2.77,2.61,4.34,6.13,3.36,2.33-.65,5.62,1.81,6.43-2.68,0-.21.89-.48,1.26-.37,4.05,1.14,8,1.77,11.82-.83.64-.43,1.24.08,1.47.81.35,1.14,1.81,1.95,2.2,1.43C210.51,16.93,214.18,21.83,217.29,20.13Z"/><path class="clss-5" d="M177.26,24.09c.16,4.29-3.82,3.94-5.64,3.67-10.09-1.49-20.19-.15-30.26-.67-.73-1-1.47-2-2.21-3a2.29,2.29,0,0,0,2.33-1c9.31,0,18.63.07,27.94,0A26.85,26.85,0,0,1,177.26,24.09Z"/><path class="clss-10" d="M337.59,30.74c-.84.48-1.71,1.43-2.51,1.37-5.12-.39-4.39,2.81-3.84,6-4.85,1.34-.93-3.69-3.12-4.28l0-6.45,2.83-1c1.35-.45,3.13,0,3.94-1.61.36-.71-.18-1.32-.86-1.47-1.8-.38-3.65-.63-5.14.85a16.7,16.7,0,0,0-1.48,1.93l-5.22,1c-1-.29-1.72-1.4-3-1-2.54,1.71-2.79-1.74-4.47-2-.93-.61.1-3.06-2.27-2.35-4.17,1.25-4-1.88-4.44-4.44,3.05-.27,6.72-2.9,7.87,2.93.34,1.77,2.91-.49,4.45.08.17,1.65-1.09,3.83,1.42,4.61,1,.32,2.22,0,3.35-.08-1.3-4,2.66-2.55,4-3.84,2.18.6,4.61,2.83,6.13-.93l0,0c5.47.23,4.94,3.76,4.09,7.46C337.8,28.09,337.5,29.31,337.59,30.74Z"/><path class="clss-12" d="M308.09,17.32c.41,2.56.27,5.69,4.44,4.44,2.37-.71,1.34,1.74,2.28,2.35.1,2.51-1.62,2.95-3.57,3.11a2,2,0,0,0-2.47,1.07l-1.33-1.24c-.4-1-.83-2-2.22-1.8l-1-1.11c-1.83-1.43,8.25-4.86-.85-5.06l1.15-1.8Z"/><path class="clss-7" d="M329.16,21c-1.32,1.29-5.28-.16-4,3.84-1.13.05-2.34.4-3.35.08-2.51-.78-1.25-3-1.42-4.61C325.5,15.9,325.52,15.9,329.16,21Z"/><path class="clss-10" d="M340.53,8.08c3.14,2.46-1.07,5.5.63,8.08l-1.43,0c-1.59-.37-4.22.92-4.44-1.73C335,10.93,337.59,9.21,340.53,8.08Z"/><path class="clss-15" d="M304.48,17.28l-1.15,1.8-2.17,1.06c-4.41-2,0-5.44-1.23-8l1.27-.07C303,13.4,304.69,14.73,304.48,17.28Z"/><path class="clss-5" d="M337.59,30.74c-.09-1.43.21-2.65,1.76-3.16,1.55.83,3.39,1.46,1.61,3.79-1.32,1.72-.22,3.83-.64,5.72h-2C337.22,35.07,340.56,32.53,337.59,30.74Z"/><path class="clss-9" d="M301.2,12.11l-1.27.07c-1.24-2.19-4-4.18-.88-6.93.82,1.82,2.81,2.92,3.11,5.07C301.26,10.6,301.22,11.35,301.2,12.11Z"/><path class="clss-16" d="M304.42,9.93c1-1.87,3.74-3.18,1.87-5.95,1.09-1.75,2.54-1.28,3.67-.3s.06,2-.66,2.87C308,8.11,308,11.67,304.42,9.93Z"/><path class="clss-7" d="M339.73,16.12l1.43,0L344.49,19c-.11,1.24-.49,2.21-2,2.08a2.25,2.25,0,0,1-2-1.77C340.15,18.29,340,17.2,339.73,16.12Z"/><path class="clss-10" d="M331.27,15.27l1-.11c1.84,1.32.65,2.7-.17,3.76s-1.22-.41-1.69-.76C328.33,16.59,330.85,16.21,331.27,15.27Z"/><path class="clss-11" d="M348.78,30.23c-.6,1-1.62.89-2.57.95C346.44,29.17,347.33,28.93,348.78,30.23Z"/><path class="clss-10" d="M335.29,20.09l-.68-1c1.1-.18.44.7.65,1.06Z"/><path class="clss-7" d="M290.32,12.08c2.13,2.18.18,4.13-.34,6.16l-6.47-1.64C285.25,13.9,288.17,13.55,290.32,12.08Z"/><path class="clss-7" d="M291.26,5.07c.06,2-2.78,2.83-2,5.1l-5.3-3.38Z"/><path class="clss-7" d="M289.42,10.78l.89,1.29A1.13,1.13,0,0,1,289.42,10.78Z"/><path class="clss-5" d="M141.44,35.13c10.15,0,20.35-.61,30.42.25,4.47.38,8.35-1.76,12.41-1.17,8.65,1.27,17.32.92,26,1.5,2.33.16,6.18-3.26,7.19,2,.1.5.49.52.64.07,1.53-4.47,3.47-3.6,5.68-.5.28.4.83.34,1.24-.14,3.26-3.81,7.35-1.31,11-1.24,2.94,0,5.81-.52,8.85-.23,3.81.36,7.85-1.23,11.68.6,1.29.61,1.71-.65,2.57-.87,1.57-.39,3.34-1.07,4.08,1.3.14.46.34.9.51,1.35.89-5.6,5.28-.81,7.47-2.53.1-.08.06-.32.08-.48.95.17,2.59.12,2.75.57,1.08,3.12,4.12,3.15,6.35,4.42H177.23c-1.13-1.39-2.71-.95-4.13-1q-13.33,0-26.66,0c-1.43,0-3-.42-4.14,1h-.89Z"/><path class="clss-9" d="M287.3,23.09l-.35-.21.3.25Z"/><path class="clss-9" d="M304.18,24.14l1,1.11a1.82,1.82,0,0,0,2.22,1.8l1.33,1.24-.21,1.88c-1.17.11-1.21,1-1.3,1.86-4.91-.42-7.71,1.67-7.84,7.11-1.37-2.2-.94-4.24-1-6.23A6.56,6.56,0,0,1,301,26.85c1.2-.92.75-2.4,0-3.6A4.76,4.76,0,0,1,304.18,24.14Z"/><path class="clss-4" d="M311.24,27.22c1.95-.16,3.67-.6,3.57-3.11,1.67.24,1.92,3.69,4.46,2-.18,2.38-4.47,2.69-3,5.91l-1.25,1.39-1.53,0C312.15,31.59,310.82,29.73,311.24,27.22Z"/><path class="clss-2" d="M304.18,24.14a4.76,4.76,0,0,0-3.18-.89c-1.66-1.12.17-2.07.16-3.11l2.17-1.06C312.43,19.28,302.35,22.71,304.18,24.14Z"/><path class="clss-4" d="M307.26,32c.09-.86.13-1.75,1.3-1.86.81.66,2.22,1.24,1,2.49C308.84,33.47,307.87,32.92,307.26,32Z"/><path class="clss-10" d="M314.33,38.05c-1.3,0-2.17-.43-1.57-2a4.93,4.93,0,0,0,.52-.5l1.86-1.73A4.56,4.56,0,0,1,314.33,38.05Z"/><path class="clss-13" d="M315.14,33.84l-1.86,1.73c.08-.71.16-1.43.25-2.14l1.53,0Z"/><path class="clss-4" d="M327.44,26.08a16.7,16.7,0,0,1,1.48-1.93c1.49-1.48,3.34-1.23,5.14-.85.68.15,1.22.76.86,1.47-.81,1.62-2.59,1.16-3.94,1.61l-2.83,1Z"/><path class="clss-11" d="M316.31,32c-1.51-3.22,2.78-3.53,3-5.91,1.23-.39,2,.72,3,1-.48.62-1.46,1.32-1.37,1.84C321.61,33.46,318.82,32.48,316.31,32Z"/><path class="clss-4" d="M325.26,8.25l1,.05C325.93,8.78,325.58,8.7,325.26,8.25Z"/><path class="clss-3" d="M142.3,40.09c1.13-1.39,2.71-1,4.14-1q13.32,0,26.66,0c1.42,0,3-.43,4.13,1Z"/><path class="clss-15" d="M135.46,14.18l1.1,2.88c-.13.69-.25,1.37-.38,2.06-4.66.88-9.5.91-13.9,3h0c-.34-2.48-2.3-2.12-3.85-2-9.18.94-18.4-1.06-27.62.69-2.89.55-6.16-.61-9.3-.81-8.39-.52-16.68,1.63-25.14.44-4-.55-7.72,1.66-10.6,5.48.23-3.28.59-5-3.8-4.24-5.05.88-10.44-1-15.75-.64-.7-4.72,1.17-6.12,6-6.08,31.29.23,62.58.1,93.87.14A36.75,36.75,0,0,0,135.46,14.18Z"/><path class="clss-15" d="M99.19,27.15c.55-.31,1.36-1,1.61-.88,3.71,2.4,7.69.69,11.53.84.42,4.19-3,4.48-5.57,4.82C103.24,32.4,100.21,31.12,99.19,27.15Z"/><path class="clss-5" d="M136.39,1.16l.76-1L141.28.1c-.28,3.21,1.54,7.81-4.7,7Q136.49,4.16,136.39,1.16Z"/><path class="clss-5" d="M136.49,13.1l-.3-3c.14-.35.27-.71.41-1.06,1.65.48,4.15-1,4.68,2,0,.69-.05,1.39-.08,2.08Z"/><path class="clss-10" d="M141.48,22.07a2.29,2.29,0,0,1-2.33,1l-2.59,0c-.13-1.67-.26-3.34-.38-5,.13-.69.25-1.37.38-2.06,1.33,1.19,3,1,4.58,1.12C141.26,18.81,141.37,20.44,141.48,22.07Z"/><path class="clss-7" d="M141.14,17.18c-1.59-.09-3.25.07-4.58-1.12l-1.1-2.88,1-.08,4.71.08Z"/><path class="clss-10" d="M141.44,34.13l0,4.95c-1.54,1.69-3.49.83-5.3.84l.06-3.83.39-3.05,4.42-.11Z"/><path class="clss-4" d="M141,32.93l-4.42.11-.39-6.93.39-3,2.59,0c.74,1,1.48,2,2.21,3Q141.18,29.51,141,32.93Z"/><g class="clss-17"><path class="clss-8" d="M136.26,1.18l.75-1,4.13-.08c-.28,3.21,1.54,7.81-4.7,7.05Z"/><path class="clss-8" d="M136.36,13.12l-.3-3c.13-.36.27-.71.4-1.07,1.65.48,4.15-1,4.68,2,0,.7,0,1.39-.07,2.09Z"/><path class="clss-8" d="M141.34,22.08a2.31,2.31,0,0,1-2.32,1l-2.6,0c-.13-1.67-.25-3.34-.38-5,.13-.68.25-1.37.38-2.05,1.33,1.19,3,1,4.59,1.12Z"/><path class="clss-8" d="M141,17.2c-1.6-.09-3.26.07-4.59-1.12-.37-1-.73-1.93-1.1-2.89l1-.07,4.71.08Z"/><path class="clss-8" d="M141.3,34.14c0,1.65,0,3.3,0,5-1.55,1.69-3.5.83-5.31.83,0-1.27,0-2.55.07-3.82.12-1,.25-2,.38-3.06l4.42-.11Z"/><path class="clss-8" d="M140.84,32.94l-4.42.11q-.19-3.46-.38-6.93c.12-1,.25-2,.38-3l2.6,0,2.21,3Z"/></g><path class="clss-15" d="M22.33,35.09l-5.09-1c-1.36-.15-3.5.28-3.15-1.84.26-1.57,2.08-1.19,3.35-.61C19.28,32.52,21.91,32.22,22.33,35.09Z"/><path class="clss-15" d="M91.31,36.09a4.19,4.19,0,0,1-5.08,0c0-1.34-.1-2.83,1.83-2.94S91.14,34.1,91.31,36.09Z"/><path class="clss-15" d="M122.28,22.1c-.12.74-.09,1.6-1.21,1.52a.44.44,0,0,1-.32-.31c-.07-1.12.79-1.09,1.52-1.21Z"/><path class="clss-2" d="M307.44,27.05a1.82,1.82,0,0,1-2.22-1.8C306.61,25,307,26,307.44,27.05Z"/></svg>
